#!OML:ASF E:\acrobat2\Project_11_07_03\Capture day 1\Session 1\Acrobat.ASF
:FULLY-SPECIFIED
:DEGREES
148
root 10.9021 18.1067 -36.1993 183.849 0.945102 -185.679
lowerback -5.04003 0.55409 -6.98599
upperback -2.36589 1.35091 -2.58505
thorax 0.294839 0.829689 1.31724
lowerneck 0.930737 -0.796212 -4.50422
upperneck -17.0708 -1.43185 7.50506
head -5.16971 -1.36949 3.21208
rclavicle -1.76421e-015 -1.82882e-014
rhumerus -44.2984 -15.0483 -70.686
rradius 24.6912
rwrist -1.12915
rhand -5.78026 -45.6167
rfingers 7.12502
rthumb 20.0436 285.397
lclavicle -1.76421e-015 -1.82882e-014
lhumerus -48.9459 7.3534 60.4226
lradius 21.8723
lwrist 13.6714
lhand -11.0095 -372.033
lfingers 7.12502
lthumb 15.0113 17.4026
rfemur 2.98515 8.33795 15.3861
rtibia 1.08814
rfoot -190.887 -191.444
rtoes -25.6015
lfemur 0.340614 3.27461 -25.4827
ltibia 0.0105311
lfoot 6.09334 -13.3155
ltoes 48.5871
149
root 10.9009 18.0997 -36.2353 183.73 1.0049 -185.375
lowerback -5.25531 0.554128 -6.55154
upperback -2.19729 1.33372 -2.4522
thorax 0.597235 0.796632 1.21894
lowerneck 1.70854 -0.646233 -4.48564
upperneck -17.7855 -1.24566 7.54295
head -5.53646 -1.31391 3.24113
rclavicle -1.6201e-014 1.23246e-014
rhumerus -43.5161 -14.8196 -71.1876
rradius 24.6608
rwrist -0.722432
rhand -6.52711 -44.7448
rfingers 7.12502
rthumb 19.3256 286.195
lclavicle -1.6201e-014 1.23246e-014
lhumerus -47.932 8.48072 60.6855
lradius 20.3371
lwrist 12.2771
lhand -10.8033 -372.543
lfingers 7.12502
lthumb 15.21 16.8776
rfemur 3.29782 8.20964 15.8019
rtibia 0.971033
rfoot -190.682 -191.449
rtoes -27.6933
lfemur 0.616231 3.5254 -25.0716
ltibia 0.0290978
lfoot 5.8974 -13.5849
ltoes 47.7439
150
root 10.8976 18.0955 -36.2764 183.585 0.992646 -185.237
lowerback -5.39121 0.516828 -6.22203
upperback -2.17785 1.27378 -2.42174
thorax 0.704032 0.759345 1.06691
lowerneck 2.18412 -0.522008 -4.50116
upperneck -17.6604 -1.00738 7.81067
head -5.5908 -1.20403 3.31902
rclavicle -9.56651e-015 -3.97569e-015
rhumerus -42.9088 -14.3534 -71.9068
rradius 24.5613
rwrist -0.18647
rhand -7.72683 -44.3538
rfingers 7.12502
rthumb 18.1717 286.475
lclavicle -9.56651e-015 -3.97569e-015
lhumerus -46.9942 10.493 60.1629
lradius 18.5058
lwrist 9.39973
lhand -10.1372 -372.921
lfingers 7.12502
lthumb 15.8515 16.4505
rfemur 3.69092 7.99815 16.0108
rtibia 0.850506
rfoot -190.587 -191.437
rtoes -29.511
lfemur 1.00622 3.41106 -24.9236
ltibia -0.0848688
lfoot 5.4948 -13.5881
ltoes 47.1056
151
root 10.8894 18.0958 -36.3256 183.48 0.984127 -185.637
lowerback -5.74752 0.421965 -6.38595
upperback -2.14923 1.20803 -2.56975
thorax 0.937015 0.72745 1.00839
lowerneck 2.5407 -0.401053 -4.42106
upperneck -17.2772 -0.757763 8.06377
head -5.54648 -1.08193 3.36663
rclavicle -7.82715e-015 2.78299e-014
rhumerus -42.3458 -13.8578 -72.7657
rradius 24.5451
rwrist 0.513425
rhand -8.55761 -44.4618
rfingers 7.12502
rthumb 17.3722 286.295
lclavicle -7.82715e-015 2.78299e-014
lhumerus -46.0236 13.0893 59.321
lradius 16.5712
lwrist 5.54284
lhand -9.53723 -373.806
lfingers 7.12502
lthumb 16.4292 15.5186
rfemur 4.08002 7.58867 15.4745
rtibia 0.693498
rfoot -190.577 -191.102
rtoes -30.2356
lfemur 1.4228 3.23568 -25.5326
ltibia -0.331223
lfoot 5.26863 -13.3974
ltoes 46.7777
152
root 10.881 18.0927 -36.3731 183.326 0.8358 -186.586
lowerback -5.97898 0.277158 -7.09663
upperback -2.16866 1.12423 -2.88631
thorax 1.04541 0.702771 1.07464
lowerneck 2.65554 -0.542579 -4.0723
upperneck -16.5391 -0.87558 8.05267
head -5.33099 -1.11875 3.2912
rclavicle 1.16786e-015 -7.95139e-015
rhumerus -42.044 -13.5601 -73.5035
rradius 24.7157
rwrist 1.46643
rhand -9.01416 -44.4451
rfingers 7.12502
rthumb 16.9328 286.273
lclavicle 1.16786e-015 -7.95139e-015
lhumerus -45.1535 16.2059 58.1086
lradius 14.6262
lwrist 0.627378
lhand -8.9185 -374.208
lfingers 7.12502
lthumb 17.0249 15.0658
rfemur 4.56749 6.84076 14.2001
rtibia 0.461979
rfoot -190.595 -190.502
rtoes -30.4774
lfemur 1.79523 3.39826 -26.805
ltibia -0.4406
lfoot 5.45711 -13.5376
ltoes 46.7415
153
root 10.8862 18.096 -36.3959 183.521 0.697122 -186.111
lowerback -6.13735 0.260996 -6.50699
upperback -2.44773 1.06922 -2.79788
thorax 0.858241 0.685603 0.834618
lowerneck 2.94376 -0.676508 -4.01215
upperneck -15.828 -0.96703 8.33461
head -5.15173 -1.14624 3.35922
rclavicle 6.08778e-015 1.07344e-014
rhumerus -41.932 -13.1105 -74.2602
rradius 24.9574
rwrist 2.05755
rhand -9.36619 -44.2763
rfingers 7.12502
rthumb 16.5939 286.413
lclavicle 6.08778e-015 1.07344e-014
lhumerus -44.5746 19.1608 57.0149
lradius 13.0891
lwrist -4.78422
lhand -7.77364 -373.143
lfingers 7.12502
lthumb 18.1266 16.0321
rfemur 4.47898 7.12366 14.8832
rtibia 0.466964
rfoot -190.701 -190.893
rtoes -30.1992
lfemur 1.58329 3.43743 -26.1885
ltibia -0.268181
lfoot 5.30312 -13.6882
ltoes 46.4667
154
root 10.8918 18.0993 -36.418 183.547 0.542566 -185.749
lowerback -6.13245 0.295562 -5.98781
upperback -2.68151 1.07874 -2.782
thorax 0.623262 0.700389 0.56055
lowerneck 3.1714 -0.816214 -3.97115
upperneck -15.0559 -1.07596 8.6172
head -4.94292 -1.17916 3.42958
rclavicle -1.0635e-014 -7.55382e-015
rhumerus -41.8449 -12.5047 -75.1964
rradius 25.2928
rwrist 1.97873
rhand -9.16842 -44.4746
rfingers 7.12502
rthumb 16.7843 286.231
lclavicle -1.0635e-014 -7.55382e-015
lhumerus -43.7253 20.1909 57.7919
lradius 12.5415
lwrist -7.90284
lhand -6.03094 -372.057
lfingers 7.12502
lthumb 19.8026 16.9544
rfemur 4.61093 7.48693 15.4608
rtibia 0.398435
rfoot -190.725 -191.374
rtoes -29.9978
lfemur 1.57644 3.50678 -25.6732
ltibia -0.145005
lfoot 5.25701 -13.8621
ltoes 45.9507
